<mxfile host="app.diagrams.net" modified="2023-11-08T01:44:59.945Z" agent="Mozilla/5.0 (Windows NT 10.0; Win64; x64) AppleWebKit/537.36 (KHTML, like Gecko) Chrome/119.0.0.0 Safari/537.36" etag="TI_uYUOstCBIEWLBMlrA" version="22.0.8" type="device" pages="2">
  <diagram name="메인" id="Tzeip4ZOk5XI78eEioDq">
    <mxGraphModel dx="954" dy="570" grid="1" gridSize="10" guides="1" tooltips="1" connect="1" arrows="1" fold="1" page="1" pageScale="1" pageWidth="827" pageHeight="1169" math="0" shadow="0">
      <root>
        <mxCell id="0" />
        <mxCell id="1" parent="0" />
        <mxCell id="JnR3Sud06XfX3LbJet_H-5" style="edgeStyle=orthogonalEdgeStyle;rounded=0;orthogonalLoop=1;jettySize=auto;html=1;exitX=0.5;exitY=1;exitDx=0;exitDy=0;entryX=0.5;entryY=0;entryDx=0;entryDy=0;" parent="1" source="JnR3Sud06XfX3LbJet_H-1" target="JnR3Sud06XfX3LbJet_H-4" edge="1">
          <mxGeometry relative="1" as="geometry" />
        </mxCell>
        <mxCell id="JnR3Sud06XfX3LbJet_H-1" value="앱 실행" style="ellipse;whiteSpace=wrap;html=1;" parent="1" vertex="1">
          <mxGeometry x="371" y="30" width="86" height="50" as="geometry" />
        </mxCell>
        <mxCell id="JnR3Sud06XfX3LbJet_H-7" style="edgeStyle=orthogonalEdgeStyle;rounded=0;orthogonalLoop=1;jettySize=auto;html=1;exitX=0.5;exitY=1;exitDx=0;exitDy=0;entryX=0.5;entryY=0;entryDx=0;entryDy=0;" parent="1" source="JnR3Sud06XfX3LbJet_H-4" target="JnR3Sud06XfX3LbJet_H-6" edge="1">
          <mxGeometry relative="1" as="geometry" />
        </mxCell>
        <mxCell id="JnR3Sud06XfX3LbJet_H-4" value="로고 화면 출력 +&lt;br&gt;데이터베이스 실행" style="whiteSpace=wrap;html=1;" parent="1" vertex="1">
          <mxGeometry x="354" y="110" width="120" height="60" as="geometry" />
        </mxCell>
        <mxCell id="JnR3Sud06XfX3LbJet_H-9" value="" style="edgeStyle=orthogonalEdgeStyle;rounded=0;orthogonalLoop=1;jettySize=auto;html=1;" parent="1" source="JnR3Sud06XfX3LbJet_H-6" target="JnR3Sud06XfX3LbJet_H-8" edge="1">
          <mxGeometry relative="1" as="geometry" />
        </mxCell>
        <mxCell id="JnR3Sud06XfX3LbJet_H-6" value="시험 뷰 실행" style="whiteSpace=wrap;html=1;" parent="1" vertex="1">
          <mxGeometry x="354" y="200" width="120" height="60" as="geometry" />
        </mxCell>
        <mxCell id="jl6qukykbYLJY7HqCB9_-8" style="edgeStyle=orthogonalEdgeStyle;rounded=0;orthogonalLoop=1;jettySize=auto;html=1;exitX=0.5;exitY=1;exitDx=0;exitDy=0;entryX=0.5;entryY=0;entryDx=0;entryDy=0;" parent="1" source="JnR3Sud06XfX3LbJet_H-8" target="jl6qukykbYLJY7HqCB9_-4" edge="1">
          <mxGeometry relative="1" as="geometry" />
        </mxCell>
        <mxCell id="jl6qukykbYLJY7HqCB9_-9" style="edgeStyle=orthogonalEdgeStyle;rounded=0;orthogonalLoop=1;jettySize=auto;html=1;exitX=0.5;exitY=1;exitDx=0;exitDy=0;entryX=0.5;entryY=0;entryDx=0;entryDy=0;" parent="1" source="JnR3Sud06XfX3LbJet_H-8" target="jl6qukykbYLJY7HqCB9_-5" edge="1">
          <mxGeometry relative="1" as="geometry" />
        </mxCell>
        <mxCell id="jl6qukykbYLJY7HqCB9_-10" style="edgeStyle=orthogonalEdgeStyle;rounded=0;orthogonalLoop=1;jettySize=auto;html=1;exitX=0.5;exitY=1;exitDx=0;exitDy=0;entryX=0.5;entryY=0;entryDx=0;entryDy=0;" parent="1" source="JnR3Sud06XfX3LbJet_H-8" target="jl6qukykbYLJY7HqCB9_-6" edge="1">
          <mxGeometry relative="1" as="geometry" />
        </mxCell>
        <mxCell id="jl6qukykbYLJY7HqCB9_-11" style="edgeStyle=orthogonalEdgeStyle;rounded=0;orthogonalLoop=1;jettySize=auto;html=1;exitX=0.5;exitY=1;exitDx=0;exitDy=0;entryX=0.5;entryY=0;entryDx=0;entryDy=0;" parent="1" source="JnR3Sud06XfX3LbJet_H-8" target="jl6qukykbYLJY7HqCB9_-7" edge="1">
          <mxGeometry relative="1" as="geometry" />
        </mxCell>
        <mxCell id="JnR3Sud06XfX3LbJet_H-8" value="메뉴 선택" style="rhombus;whiteSpace=wrap;html=1;" parent="1" vertex="1">
          <mxGeometry x="339" y="290" width="150" height="60" as="geometry" />
        </mxCell>
        <mxCell id="jl6qukykbYLJY7HqCB9_-1" value="메인 화면" style="text;html=1;align=center;verticalAlign=middle;resizable=0;points=[];autosize=1;strokeColor=#d79b00;fillColor=#ffe6cc;" parent="1" vertex="1">
          <mxGeometry x="284" y="215" width="70" height="30" as="geometry" />
        </mxCell>
        <mxCell id="jl6qukykbYLJY7HqCB9_-2" value="인트로 화면" style="text;html=1;align=center;verticalAlign=middle;resizable=0;points=[];autosize=1;strokeColor=#d79b00;fillColor=#ffe6cc;" parent="1" vertex="1">
          <mxGeometry x="264" y="125" width="90" height="30" as="geometry" />
        </mxCell>
        <mxCell id="jl6qukykbYLJY7HqCB9_-3" value="바텀 네비게이션?" style="text;html=1;align=center;verticalAlign=middle;resizable=0;points=[];autosize=1;strokeColor=#d79b00;fillColor=#ffe6cc;" parent="1" vertex="1">
          <mxGeometry x="219" y="305" width="120" height="30" as="geometry" />
        </mxCell>
        <mxCell id="jl6qukykbYLJY7HqCB9_-4" value="단어 목록 뷰" style="whiteSpace=wrap;html=1;" parent="1" vertex="1">
          <mxGeometry x="134" y="420" width="120" height="60" as="geometry" />
        </mxCell>
        <mxCell id="jl6qukykbYLJY7HqCB9_-5" value="시험(메인 화면) 뷰&lt;br&gt;디폴트: 카드 시험" style="whiteSpace=wrap;html=1;" parent="1" vertex="1">
          <mxGeometry x="278" y="420" width="120" height="60" as="geometry" />
        </mxCell>
        <mxCell id="jl6qukykbYLJY7HqCB9_-6" value="기록 뷰" style="whiteSpace=wrap;html=1;" parent="1" vertex="1">
          <mxGeometry x="424" y="420" width="120" height="60" as="geometry" />
        </mxCell>
        <mxCell id="jl6qukykbYLJY7HqCB9_-7" value="기타(설정) 뷰" style="whiteSpace=wrap;html=1;" parent="1" vertex="1">
          <mxGeometry x="574" y="420" width="120" height="60" as="geometry" />
        </mxCell>
      </root>
    </mxGraphModel>
  </diagram>
  <diagram id="qpkPDEsyqpHEfXD1Sore" name="시험 뷰">
    <mxGraphModel dx="1590" dy="950" grid="1" gridSize="10" guides="1" tooltips="1" connect="1" arrows="1" fold="1" page="1" pageScale="1" pageWidth="827" pageHeight="1169" math="0" shadow="0">
      <root>
        <mxCell id="0" />
        <mxCell id="1" parent="0" />
        <mxCell id="FESLN0T9wgfGlMiHrODq-3" value="" style="edgeStyle=orthogonalEdgeStyle;rounded=0;orthogonalLoop=1;jettySize=auto;html=1;" parent="1" source="FESLN0T9wgfGlMiHrODq-1" target="FESLN0T9wgfGlMiHrODq-2" edge="1">
          <mxGeometry relative="1" as="geometry" />
        </mxCell>
        <mxCell id="FESLN0T9wgfGlMiHrODq-1" value="카드 시험 뷰" style="ellipse;whiteSpace=wrap;html=1;" parent="1" vertex="1">
          <mxGeometry x="379" y="180" width="110" height="50" as="geometry" />
        </mxCell>
        <mxCell id="FESLN0T9wgfGlMiHrODq-7" value="" style="edgeStyle=orthogonalEdgeStyle;rounded=0;orthogonalLoop=1;jettySize=auto;html=1;" parent="1" source="FESLN0T9wgfGlMiHrODq-2" target="FESLN0T9wgfGlMiHrODq-6" edge="1">
          <mxGeometry relative="1" as="geometry" />
        </mxCell>
        <mxCell id="FESLN0T9wgfGlMiHrODq-2" value="전체 단어 중&amp;nbsp;&lt;br&gt;외우지 못한 단어&lt;br&gt;리스트업" style="whiteSpace=wrap;html=1;" parent="1" vertex="1">
          <mxGeometry x="374" y="260" width="120" height="60" as="geometry" />
        </mxCell>
        <mxCell id="FESLN0T9wgfGlMiHrODq-10" value="" style="edgeStyle=orthogonalEdgeStyle;rounded=0;orthogonalLoop=1;jettySize=auto;html=1;" parent="1" source="FESLN0T9wgfGlMiHrODq-6" target="FESLN0T9wgfGlMiHrODq-9" edge="1">
          <mxGeometry relative="1" as="geometry" />
        </mxCell>
        <mxCell id="FESLN0T9wgfGlMiHrODq-16" style="edgeStyle=orthogonalEdgeStyle;rounded=0;orthogonalLoop=1;jettySize=auto;html=1;exitX=1;exitY=0.5;exitDx=0;exitDy=0;entryX=0.5;entryY=0;entryDx=0;entryDy=0;" parent="1" source="FESLN0T9wgfGlMiHrODq-6" target="FESLN0T9wgfGlMiHrODq-12" edge="1">
          <mxGeometry relative="1" as="geometry">
            <Array as="points">
              <mxPoint x="605" y="380" />
            </Array>
          </mxGeometry>
        </mxCell>
        <mxCell id="FESLN0T9wgfGlMiHrODq-6" value="블라인드 모드?" style="rhombus;whiteSpace=wrap;html=1;" parent="1" vertex="1">
          <mxGeometry x="369" y="350" width="130" height="60" as="geometry" />
        </mxCell>
        <mxCell id="hRX13EAjjvB1_wwCq8TA-4" style="edgeStyle=orthogonalEdgeStyle;rounded=0;orthogonalLoop=1;jettySize=auto;html=1;" parent="1" source="FESLN0T9wgfGlMiHrODq-9" target="hRX13EAjjvB1_wwCq8TA-3" edge="1">
          <mxGeometry relative="1" as="geometry" />
        </mxCell>
        <mxCell id="hRX13EAjjvB1_wwCq8TA-6" style="edgeStyle=orthogonalEdgeStyle;rounded=0;orthogonalLoop=1;jettySize=auto;html=1;exitX=0.5;exitY=1;exitDx=0;exitDy=0;entryX=0.5;entryY=0;entryDx=0;entryDy=0;" parent="1" source="FESLN0T9wgfGlMiHrODq-9" target="hRX13EAjjvB1_wwCq8TA-1" edge="1">
          <mxGeometry relative="1" as="geometry" />
        </mxCell>
        <mxCell id="FESLN0T9wgfGlMiHrODq-9" value="랜덤 모드?" style="rhombus;whiteSpace=wrap;html=1;" parent="1" vertex="1">
          <mxGeometry x="369" y="480" width="130" height="60" as="geometry" />
        </mxCell>
        <mxCell id="FESLN0T9wgfGlMiHrODq-11" value="no" style="text;html=1;align=center;verticalAlign=middle;resizable=0;points=[];autosize=1;strokeColor=#6c8ebf;fillColor=#dae8fc;" parent="1" vertex="1">
          <mxGeometry x="374" y="430" width="40" height="30" as="geometry" />
        </mxCell>
        <mxCell id="FESLN0T9wgfGlMiHrODq-17" style="edgeStyle=orthogonalEdgeStyle;rounded=0;orthogonalLoop=1;jettySize=auto;html=1;exitX=0.5;exitY=1;exitDx=0;exitDy=0;entryX=1;entryY=0.5;entryDx=0;entryDy=0;" parent="1" source="FESLN0T9wgfGlMiHrODq-12" target="FESLN0T9wgfGlMiHrODq-9" edge="1">
          <mxGeometry relative="1" as="geometry">
            <Array as="points">
              <mxPoint x="605" y="510" />
            </Array>
          </mxGeometry>
        </mxCell>
        <mxCell id="FESLN0T9wgfGlMiHrODq-12" value="&lt;div style=&quot;&quot;&gt;&lt;span style=&quot;background-color: initial;&quot;&gt;단어 중 랜덤하게 가림&lt;/span&gt;&lt;/div&gt;&lt;div style=&quot;&quot;&gt;&lt;span style=&quot;background-color: initial;&quot;&gt;설정에 따라&lt;/span&gt;&lt;/div&gt;&lt;div style=&quot;&quot;&gt;&lt;ol&gt;&lt;li&gt;&lt;span style=&quot;background-color: initial;&quot;&gt;단어만&lt;/span&gt;&lt;/li&gt;&lt;li&gt;&lt;span style=&quot;background-color: initial;&quot;&gt;뜻만&lt;/span&gt;&lt;/li&gt;&lt;li&gt;&lt;span style=&quot;background-color: initial;&quot;&gt;둘다&lt;/span&gt;&lt;/li&gt;&lt;/ol&gt;&lt;/div&gt;" style="whiteSpace=wrap;html=1;align=left;" parent="1" vertex="1">
          <mxGeometry x="540" y="390" width="130" height="110" as="geometry" />
        </mxCell>
        <mxCell id="FESLN0T9wgfGlMiHrODq-14" value="yes" style="text;html=1;align=center;verticalAlign=middle;resizable=0;points=[];autosize=1;strokeColor=#6c8ebf;fillColor=#dae8fc;" parent="1" vertex="1">
          <mxGeometry x="520" y="335" width="40" height="30" as="geometry" />
        </mxCell>
        <mxCell id="hRX13EAjjvB1_wwCq8TA-5" style="edgeStyle=orthogonalEdgeStyle;rounded=0;orthogonalLoop=1;jettySize=auto;html=1;exitX=0.5;exitY=1;exitDx=0;exitDy=0;entryX=1;entryY=0.5;entryDx=0;entryDy=0;" parent="1" source="hRX13EAjjvB1_wwCq8TA-1" target="hRX13EAjjvB1_wwCq8TA-3" edge="1">
          <mxGeometry relative="1" as="geometry" />
        </mxCell>
        <mxCell id="hRX13EAjjvB1_wwCq8TA-1" value="목록 순서 랜덤화" style="whiteSpace=wrap;html=1;" parent="1" vertex="1">
          <mxGeometry x="540" y="610" width="105" height="40" as="geometry" />
        </mxCell>
        <mxCell id="hRX13EAjjvB1_wwCq8TA-19" style="edgeStyle=orthogonalEdgeStyle;rounded=0;orthogonalLoop=1;jettySize=auto;html=1;exitX=0.5;exitY=1;exitDx=0;exitDy=0;entryX=0.5;entryY=0;entryDx=0;entryDy=0;" parent="1" source="hRX13EAjjvB1_wwCq8TA-3" target="hRX13EAjjvB1_wwCq8TA-9" edge="1">
          <mxGeometry relative="1" as="geometry" />
        </mxCell>
        <mxCell id="hRX13EAjjvB1_wwCq8TA-20" style="edgeStyle=orthogonalEdgeStyle;rounded=0;orthogonalLoop=1;jettySize=auto;html=1;exitX=0.5;exitY=1;exitDx=0;exitDy=0;entryX=0.5;entryY=0;entryDx=0;entryDy=0;" parent="1" source="hRX13EAjjvB1_wwCq8TA-3" target="hRX13EAjjvB1_wwCq8TA-10" edge="1">
          <mxGeometry relative="1" as="geometry" />
        </mxCell>
        <mxCell id="hRX13EAjjvB1_wwCq8TA-21" style="edgeStyle=orthogonalEdgeStyle;rounded=0;orthogonalLoop=1;jettySize=auto;html=1;exitX=0.5;exitY=1;exitDx=0;exitDy=0;entryX=0.5;entryY=0;entryDx=0;entryDy=0;" parent="1" source="hRX13EAjjvB1_wwCq8TA-3" target="hRX13EAjjvB1_wwCq8TA-11" edge="1">
          <mxGeometry relative="1" as="geometry" />
        </mxCell>
        <mxCell id="hRX13EAjjvB1_wwCq8TA-22" style="edgeStyle=orthogonalEdgeStyle;rounded=0;orthogonalLoop=1;jettySize=auto;html=1;exitX=0.5;exitY=1;exitDx=0;exitDy=0;" parent="1" source="hRX13EAjjvB1_wwCq8TA-3" target="hRX13EAjjvB1_wwCq8TA-12" edge="1">
          <mxGeometry relative="1" as="geometry" />
        </mxCell>
        <mxCell id="hRX13EAjjvB1_wwCq8TA-3" value="스와이프?" style="rhombus;whiteSpace=wrap;html=1;" parent="1" vertex="1">
          <mxGeometry x="379" y="665" width="110" height="60" as="geometry" />
        </mxCell>
        <mxCell id="hRX13EAjjvB1_wwCq8TA-7" value="yes" style="text;html=1;align=center;verticalAlign=middle;resizable=0;points=[];autosize=1;strokeColor=#6c8ebf;fillColor=#dae8fc;" parent="1" vertex="1">
          <mxGeometry x="499" y="540" width="40" height="30" as="geometry" />
        </mxCell>
        <mxCell id="hRX13EAjjvB1_wwCq8TA-8" value="no" style="text;html=1;align=center;verticalAlign=middle;resizable=0;points=[];autosize=1;strokeColor=#6c8ebf;fillColor=#dae8fc;" parent="1" vertex="1">
          <mxGeometry x="374" y="590" width="40" height="30" as="geometry" />
        </mxCell>
        <mxCell id="hRX13EAjjvB1_wwCq8TA-53" value="" style="edgeStyle=orthogonalEdgeStyle;rounded=0;orthogonalLoop=1;jettySize=auto;html=1;" parent="1" source="hRX13EAjjvB1_wwCq8TA-9" target="hRX13EAjjvB1_wwCq8TA-52" edge="1">
          <mxGeometry relative="1" as="geometry" />
        </mxCell>
        <mxCell id="hRX13EAjjvB1_wwCq8TA-9" value="이전 단어로" style="rounded=0;whiteSpace=wrap;html=1;" parent="1" vertex="1">
          <mxGeometry x="166" y="820" width="120" height="60" as="geometry" />
        </mxCell>
        <mxCell id="hRX13EAjjvB1_wwCq8TA-51" value="" style="edgeStyle=orthogonalEdgeStyle;rounded=0;orthogonalLoop=1;jettySize=auto;html=1;" parent="1" source="hRX13EAjjvB1_wwCq8TA-10" target="hRX13EAjjvB1_wwCq8TA-50" edge="1">
          <mxGeometry relative="1" as="geometry" />
        </mxCell>
        <mxCell id="hRX13EAjjvB1_wwCq8TA-10" value="현재 단어를 &lt;br&gt;외운 단어로&amp;nbsp; +&lt;br&gt;다음 단어로" style="rounded=0;whiteSpace=wrap;html=1;" parent="1" vertex="1">
          <mxGeometry x="306" y="820" width="120" height="60" as="geometry" />
        </mxCell>
        <mxCell id="hRX13EAjjvB1_wwCq8TA-47" value="" style="edgeStyle=orthogonalEdgeStyle;rounded=0;orthogonalLoop=1;jettySize=auto;html=1;" parent="1" source="hRX13EAjjvB1_wwCq8TA-11" target="hRX13EAjjvB1_wwCq8TA-46" edge="1">
          <mxGeometry relative="1" as="geometry" />
        </mxCell>
        <mxCell id="hRX13EAjjvB1_wwCq8TA-11" value="(현재 단어&amp;nbsp;&lt;br&gt;못외움)&lt;br&gt;다음 단어로" style="rounded=0;whiteSpace=wrap;html=1;" parent="1" vertex="1">
          <mxGeometry x="442" y="820" width="120" height="60" as="geometry" />
        </mxCell>
        <mxCell id="hRX13EAjjvB1_wwCq8TA-44" value="" style="edgeStyle=orthogonalEdgeStyle;rounded=0;orthogonalLoop=1;jettySize=auto;html=1;" parent="1" source="hRX13EAjjvB1_wwCq8TA-12" target="hRX13EAjjvB1_wwCq8TA-43" edge="1">
          <mxGeometry relative="1" as="geometry" />
        </mxCell>
        <mxCell id="hRX13EAjjvB1_wwCq8TA-12" value="미정" style="rounded=0;whiteSpace=wrap;html=1;" parent="1" vertex="1">
          <mxGeometry x="582" y="820" width="120" height="60" as="geometry" />
        </mxCell>
        <mxCell id="hRX13EAjjvB1_wwCq8TA-40" value="" style="endArrow=classic;html=1;rounded=0;entryX=0;entryY=0.5;entryDx=0;entryDy=0;" parent="1" source="hRX13EAjjvB1_wwCq8TA-43" target="hRX13EAjjvB1_wwCq8TA-3" edge="1">
          <mxGeometry width="50" height="50" relative="1" as="geometry">
            <mxPoint x="640" y="910" as="sourcePoint" />
            <mxPoint x="410" y="780" as="targetPoint" />
            <Array as="points">
              <mxPoint x="150" y="910" />
              <mxPoint x="150" y="695" />
            </Array>
          </mxGeometry>
        </mxCell>
        <mxCell id="hRX13EAjjvB1_wwCq8TA-43" value="" style="shape=waypoint;sketch=0;size=6;pointerEvents=1;points=[];fillColor=default;resizable=0;rotatable=0;perimeter=centerPerimeter;snapToPoint=1;rounded=0;" parent="1" vertex="1">
          <mxGeometry x="632" y="900" width="20" height="20" as="geometry" />
        </mxCell>
        <mxCell id="hRX13EAjjvB1_wwCq8TA-46" value="" style="shape=waypoint;sketch=0;size=6;pointerEvents=1;points=[];fillColor=default;resizable=0;rotatable=0;perimeter=centerPerimeter;snapToPoint=1;rounded=0;" parent="1" vertex="1">
          <mxGeometry x="492" y="900" width="20" height="20" as="geometry" />
        </mxCell>
        <mxCell id="hRX13EAjjvB1_wwCq8TA-50" value="" style="shape=waypoint;sketch=0;size=6;pointerEvents=1;points=[];fillColor=default;resizable=0;rotatable=0;perimeter=centerPerimeter;snapToPoint=1;rounded=0;" parent="1" vertex="1">
          <mxGeometry x="356" y="900" width="20" height="20" as="geometry" />
        </mxCell>
        <mxCell id="hRX13EAjjvB1_wwCq8TA-52" value="" style="shape=waypoint;sketch=0;size=6;pointerEvents=1;points=[];fillColor=default;resizable=0;rotatable=0;perimeter=centerPerimeter;snapToPoint=1;rounded=0;" parent="1" vertex="1">
          <mxGeometry x="216" y="900" width="20" height="20" as="geometry" />
        </mxCell>
        <mxCell id="hRX13EAjjvB1_wwCq8TA-54" value="왼쪽" style="text;html=1;align=center;verticalAlign=middle;resizable=0;points=[];autosize=1;strokeColor=#6c8ebf;fillColor=#dae8fc;" parent="1" vertex="1">
          <mxGeometry x="201" y="738" width="50" height="30" as="geometry" />
        </mxCell>
        <mxCell id="hRX13EAjjvB1_wwCq8TA-55" value="위" style="text;html=1;align=center;verticalAlign=middle;resizable=0;points=[];autosize=1;strokeColor=#6c8ebf;fillColor=#dae8fc;" parent="1" vertex="1">
          <mxGeometry x="346" y="738" width="40" height="30" as="geometry" />
        </mxCell>
        <mxCell id="hRX13EAjjvB1_wwCq8TA-56" value="오른쪽" style="text;html=1;align=center;verticalAlign=middle;resizable=0;points=[];autosize=1;strokeColor=#6c8ebf;fillColor=#dae8fc;" parent="1" vertex="1">
          <mxGeometry x="472" y="738" width="60" height="30" as="geometry" />
        </mxCell>
        <mxCell id="hRX13EAjjvB1_wwCq8TA-57" value="아래" style="text;html=1;align=center;verticalAlign=middle;resizable=0;points=[];autosize=1;strokeColor=#6c8ebf;fillColor=#dae8fc;" parent="1" vertex="1">
          <mxGeometry x="617" y="738" width="50" height="30" as="geometry" />
        </mxCell>
        <mxCell id="PRNK42jDpk8JcWjVH-Ny-1" value="단어를 얼마나 외웠는지&amp;nbsp;테스트&lt;br&gt;다양한 방법으로 테스트 가능&lt;br&gt;&lt;div style=&quot;text-align: left;&quot;&gt;&lt;ol&gt;&lt;li&gt;&lt;span style=&quot;background-color: initial;&quot;&gt;카드 시험 뷰&lt;/span&gt;&lt;/li&gt;&lt;li&gt;&lt;span style=&quot;background-color: initial;&quot;&gt;타이핑&lt;/span&gt;&lt;/li&gt;&lt;li&gt;TTS를 이용한 음성&lt;/li&gt;&lt;/ol&gt;&lt;/div&gt;" style="rounded=0;whiteSpace=wrap;html=1;fillColor=#fff2cc;strokeColor=#d6b656;" parent="1" vertex="1">
          <mxGeometry x="42" y="20" width="178" height="120" as="geometry" />
        </mxCell>
        <mxCell id="kTLSCv1AzNy8yz3igAcG-40" style="edgeStyle=orthogonalEdgeStyle;rounded=0;orthogonalLoop=1;jettySize=auto;html=1;exitX=0.5;exitY=1;exitDx=0;exitDy=0;entryX=0.5;entryY=0;entryDx=0;entryDy=0;" edge="1" parent="1" source="PRNK42jDpk8JcWjVH-Ny-4" target="kTLSCv1AzNy8yz3igAcG-2">
          <mxGeometry relative="1" as="geometry" />
        </mxCell>
        <mxCell id="PRNK42jDpk8JcWjVH-Ny-4" value="타이핑 시험 뷰" style="ellipse;whiteSpace=wrap;html=1;" parent="1" vertex="1">
          <mxGeometry x="1019" y="180" width="110" height="50" as="geometry" />
        </mxCell>
        <mxCell id="kTLSCv1AzNy8yz3igAcG-1" value="" style="edgeStyle=orthogonalEdgeStyle;rounded=0;orthogonalLoop=1;jettySize=auto;html=1;" edge="1" parent="1" source="kTLSCv1AzNy8yz3igAcG-2">
          <mxGeometry relative="1" as="geometry">
            <mxPoint x="1074" y="350" as="targetPoint" />
          </mxGeometry>
        </mxCell>
        <mxCell id="kTLSCv1AzNy8yz3igAcG-2" value="전체 단어 중&amp;nbsp;&lt;br&gt;외우지 못한 단어&lt;br&gt;리스트업" style="whiteSpace=wrap;html=1;" vertex="1" parent="1">
          <mxGeometry x="1014" y="260" width="120" height="60" as="geometry" />
        </mxCell>
        <mxCell id="kTLSCv1AzNy8yz3igAcG-6" style="edgeStyle=orthogonalEdgeStyle;rounded=0;orthogonalLoop=1;jettySize=auto;html=1;" edge="1" parent="1" source="kTLSCv1AzNy8yz3igAcG-8">
          <mxGeometry relative="1" as="geometry">
            <mxPoint x="1073.9999999999998" y="665" as="targetPoint" />
          </mxGeometry>
        </mxCell>
        <mxCell id="kTLSCv1AzNy8yz3igAcG-7" style="edgeStyle=orthogonalEdgeStyle;rounded=0;orthogonalLoop=1;jettySize=auto;html=1;exitX=0.5;exitY=1;exitDx=0;exitDy=0;entryX=0.5;entryY=0;entryDx=0;entryDy=0;" edge="1" parent="1" source="kTLSCv1AzNy8yz3igAcG-8" target="kTLSCv1AzNy8yz3igAcG-14">
          <mxGeometry relative="1" as="geometry" />
        </mxCell>
        <mxCell id="kTLSCv1AzNy8yz3igAcG-8" value="랜덤 모드?" style="rhombus;whiteSpace=wrap;html=1;" vertex="1" parent="1">
          <mxGeometry x="1009" y="480" width="130" height="60" as="geometry" />
        </mxCell>
        <mxCell id="kTLSCv1AzNy8yz3igAcG-65" style="edgeStyle=orthogonalEdgeStyle;rounded=0;orthogonalLoop=1;jettySize=auto;html=1;exitX=0.5;exitY=1;exitDx=0;exitDy=0;entryX=0.5;entryY=0;entryDx=0;entryDy=0;" edge="1" parent="1" source="kTLSCv1AzNy8yz3igAcG-11" target="kTLSCv1AzNy8yz3igAcG-8">
          <mxGeometry relative="1" as="geometry" />
        </mxCell>
        <mxCell id="kTLSCv1AzNy8yz3igAcG-11" value="&lt;div style=&quot;&quot;&gt;&lt;span style=&quot;background-color: initial;&quot;&gt;단어 중 랜덤하게 가림&lt;/span&gt;&lt;/div&gt;&lt;div style=&quot;&quot;&gt;&lt;span style=&quot;background-color: initial;&quot;&gt;설정에 따라&lt;/span&gt;&lt;/div&gt;&lt;div style=&quot;&quot;&gt;&lt;ol&gt;&lt;li&gt;&lt;span style=&quot;background-color: initial;&quot;&gt;단어만&lt;/span&gt;&lt;/li&gt;&lt;li&gt;&lt;span style=&quot;background-color: initial;&quot;&gt;뜻만&lt;/span&gt;&lt;/li&gt;&lt;li&gt;&lt;span style=&quot;background-color: initial;&quot;&gt;둘다&lt;/span&gt;&lt;/li&gt;&lt;/ol&gt;&lt;/div&gt;" style="whiteSpace=wrap;html=1;align=left;" vertex="1" parent="1">
          <mxGeometry x="1009" y="350" width="130" height="110" as="geometry" />
        </mxCell>
        <mxCell id="kTLSCv1AzNy8yz3igAcG-13" style="edgeStyle=orthogonalEdgeStyle;rounded=0;orthogonalLoop=1;jettySize=auto;html=1;exitX=0.5;exitY=1;exitDx=0;exitDy=0;entryX=1;entryY=0.5;entryDx=0;entryDy=0;" edge="1" parent="1" source="kTLSCv1AzNy8yz3igAcG-14" target="kTLSCv1AzNy8yz3igAcG-41">
          <mxGeometry relative="1" as="geometry">
            <mxPoint x="1128.9999999999998" y="695" as="targetPoint" />
          </mxGeometry>
        </mxCell>
        <mxCell id="kTLSCv1AzNy8yz3igAcG-14" value="목록 순서 랜덤화" style="whiteSpace=wrap;html=1;" vertex="1" parent="1">
          <mxGeometry x="1180" y="610" width="105" height="40" as="geometry" />
        </mxCell>
        <mxCell id="kTLSCv1AzNy8yz3igAcG-20" value="yes" style="text;html=1;align=center;verticalAlign=middle;resizable=0;points=[];autosize=1;strokeColor=#6c8ebf;fillColor=#dae8fc;" vertex="1" parent="1">
          <mxGeometry x="1139" y="540" width="40" height="30" as="geometry" />
        </mxCell>
        <mxCell id="kTLSCv1AzNy8yz3igAcG-21" value="no" style="text;html=1;align=center;verticalAlign=middle;resizable=0;points=[];autosize=1;strokeColor=#6c8ebf;fillColor=#dae8fc;" vertex="1" parent="1">
          <mxGeometry x="1014" y="590" width="40" height="30" as="geometry" />
        </mxCell>
        <mxCell id="kTLSCv1AzNy8yz3igAcG-44" value="" style="edgeStyle=orthogonalEdgeStyle;rounded=0;orthogonalLoop=1;jettySize=auto;html=1;" edge="1" parent="1" source="kTLSCv1AzNy8yz3igAcG-41" target="kTLSCv1AzNy8yz3igAcG-43">
          <mxGeometry relative="1" as="geometry" />
        </mxCell>
        <mxCell id="kTLSCv1AzNy8yz3igAcG-41" value="단어를 리스트 &lt;br&gt;형태로 띄움" style="rounded=0;whiteSpace=wrap;html=1;" vertex="1" parent="1">
          <mxGeometry x="1014" y="665" width="120" height="60" as="geometry" />
        </mxCell>
        <mxCell id="kTLSCv1AzNy8yz3igAcG-48" value="" style="edgeStyle=orthogonalEdgeStyle;rounded=0;orthogonalLoop=1;jettySize=auto;html=1;" edge="1" parent="1" source="kTLSCv1AzNy8yz3igAcG-43" target="kTLSCv1AzNy8yz3igAcG-47">
          <mxGeometry relative="1" as="geometry" />
        </mxCell>
        <mxCell id="kTLSCv1AzNy8yz3igAcG-43" value="각 단어 당 타이핑 가능&lt;br&gt;타이핑 시 채점" style="whiteSpace=wrap;html=1;rounded=0;" vertex="1" parent="1">
          <mxGeometry x="1006" y="760" width="136" height="60" as="geometry" />
        </mxCell>
        <mxCell id="kTLSCv1AzNy8yz3igAcG-50" value="" style="edgeStyle=orthogonalEdgeStyle;rounded=0;orthogonalLoop=1;jettySize=auto;html=1;" edge="1" parent="1" source="kTLSCv1AzNy8yz3igAcG-47" target="kTLSCv1AzNy8yz3igAcG-49">
          <mxGeometry relative="1" as="geometry" />
        </mxCell>
        <mxCell id="kTLSCv1AzNy8yz3igAcG-51" style="edgeStyle=orthogonalEdgeStyle;rounded=0;orthogonalLoop=1;jettySize=auto;html=1;exitX=0;exitY=0.5;exitDx=0;exitDy=0;entryX=0;entryY=0.5;entryDx=0;entryDy=0;" edge="1" parent="1" source="kTLSCv1AzNy8yz3igAcG-47" target="kTLSCv1AzNy8yz3igAcG-43">
          <mxGeometry relative="1" as="geometry" />
        </mxCell>
        <mxCell id="kTLSCv1AzNy8yz3igAcG-47" value="정답 기입&lt;br&gt;및&amp;nbsp;채점" style="whiteSpace=wrap;html=1;rounded=0;" vertex="1" parent="1">
          <mxGeometry x="1014" y="850" width="120" height="60" as="geometry" />
        </mxCell>
        <mxCell id="kTLSCv1AzNy8yz3igAcG-63" style="edgeStyle=orthogonalEdgeStyle;rounded=0;orthogonalLoop=1;jettySize=auto;html=1;exitX=0.5;exitY=1;exitDx=0;exitDy=0;entryX=0.5;entryY=0;entryDx=0;entryDy=0;" edge="1" parent="1" source="kTLSCv1AzNy8yz3igAcG-49" target="kTLSCv1AzNy8yz3igAcG-53">
          <mxGeometry relative="1" as="geometry" />
        </mxCell>
        <mxCell id="kTLSCv1AzNy8yz3igAcG-64" style="edgeStyle=orthogonalEdgeStyle;rounded=0;orthogonalLoop=1;jettySize=auto;html=1;exitX=0.5;exitY=1;exitDx=0;exitDy=0;entryX=0.5;entryY=0;entryDx=0;entryDy=0;" edge="1" parent="1" source="kTLSCv1AzNy8yz3igAcG-49" target="kTLSCv1AzNy8yz3igAcG-62">
          <mxGeometry relative="1" as="geometry" />
        </mxCell>
        <mxCell id="kTLSCv1AzNy8yz3igAcG-49" value="맞았나?" style="rhombus;whiteSpace=wrap;html=1;rounded=0;" vertex="1" parent="1">
          <mxGeometry x="1021" y="940" width="106" height="50" as="geometry" />
        </mxCell>
        <mxCell id="kTLSCv1AzNy8yz3igAcG-52" value="정답 기입 후 &lt;br&gt;다음 단어로 넘어가면&lt;br&gt;백그라운드에서 채점 실행" style="text;html=1;align=center;verticalAlign=middle;resizable=0;points=[];autosize=1;strokeColor=#d79b00;fillColor=#ffe6cc;" vertex="1" parent="1">
          <mxGeometry x="820" y="810" width="160" height="60" as="geometry" />
        </mxCell>
        <mxCell id="kTLSCv1AzNy8yz3igAcG-53" value="맞음 표시&lt;br&gt;설정에 따라&lt;br&gt;&lt;ol&gt;&lt;li&gt;글자에 하이라이트&lt;/li&gt;&lt;li&gt;원 이미지 삽입&lt;/li&gt;&lt;li&gt;등..&amp;nbsp;&lt;/li&gt;&lt;/ol&gt;" style="whiteSpace=wrap;html=1;rounded=0;" vertex="1" parent="1">
          <mxGeometry x="889" y="1040" width="160" height="150" as="geometry" />
        </mxCell>
        <mxCell id="kTLSCv1AzNy8yz3igAcG-56" value="no" style="text;html=1;align=center;verticalAlign=middle;resizable=0;points=[];autosize=1;strokeColor=#6c8ebf;fillColor=#dae8fc;" vertex="1" parent="1">
          <mxGeometry x="1142" y="970" width="40" height="30" as="geometry" />
        </mxCell>
        <mxCell id="kTLSCv1AzNy8yz3igAcG-57" value="yes" style="text;html=1;align=center;verticalAlign=middle;resizable=0;points=[];autosize=1;strokeColor=#6c8ebf;fillColor=#dae8fc;" vertex="1" parent="1">
          <mxGeometry x="969" y="970" width="40" height="30" as="geometry" />
        </mxCell>
        <mxCell id="kTLSCv1AzNy8yz3igAcG-62" value="틀림 표시&lt;br&gt;설정에 따라&lt;br&gt;&lt;ol&gt;&lt;li&gt;글자에 하이라이트&lt;/li&gt;&lt;li&gt;틀림 이미지 삽입&lt;/li&gt;&lt;li&gt;등..&amp;nbsp;&lt;/li&gt;&lt;/ol&gt;" style="whiteSpace=wrap;html=1;rounded=0;" vertex="1" parent="1">
          <mxGeometry x="1099" y="1040" width="160" height="150" as="geometry" />
        </mxCell>
        <mxCell id="kTLSCv1AzNy8yz3igAcG-67" style="edgeStyle=orthogonalEdgeStyle;rounded=0;orthogonalLoop=1;jettySize=auto;html=1;exitX=0.5;exitY=1;exitDx=0;exitDy=0;entryX=0.5;entryY=0;entryDx=0;entryDy=0;" edge="1" parent="1" source="kTLSCv1AzNy8yz3igAcG-66" target="FESLN0T9wgfGlMiHrODq-1">
          <mxGeometry relative="1" as="geometry" />
        </mxCell>
        <mxCell id="kTLSCv1AzNy8yz3igAcG-68" style="edgeStyle=orthogonalEdgeStyle;rounded=0;orthogonalLoop=1;jettySize=auto;html=1;exitX=0.5;exitY=1;exitDx=0;exitDy=0;entryX=0.5;entryY=0;entryDx=0;entryDy=0;" edge="1" parent="1" source="kTLSCv1AzNy8yz3igAcG-66" target="PRNK42jDpk8JcWjVH-Ny-4">
          <mxGeometry relative="1" as="geometry" />
        </mxCell>
        <mxCell id="kTLSCv1AzNy8yz3igAcG-66" value="시험 뷰" style="whiteSpace=wrap;html=1;" vertex="1" parent="1">
          <mxGeometry x="769" y="30" width="120" height="60" as="geometry" />
        </mxCell>
      </root>
    </mxGraphModel>
  </diagram>
</mxfile>
